# xmcd
#
# Track frame offsets:
#	150
#	23645
#	42540
#
# Disc length: 926 seconds
#
# Revision: 1
# Processed by: cddbd v1.5.1PL0 Copyright (c) Steve Scherf et al.
# Submitted via: CDex 1.50Beta5
#
DISCID=1d039c03
DTITLE=3B LAB.☆ - 星の砂
DYEAR=2003
DGENRE=Pop
TTITLE0=星の砂
TTITLE1=コースターバス流星群
TTITLE2=星に願いを君との愛を
EXTD=
EXTT0=
EXTT1=
EXTT2=
PLAYORDER=
